<svg width="706" height="530" viewBox="0 0 706 530" fill="none" xmlns="http://www.w3.org/2000/svg">
    <g clip-path="url(#clip0_10_2)">
        <path
            d="M560.772 42.7859C560.828 42.8118 560.882 42.8369 560.934 42.8612V169.831L482.888 124.246V6.20378C500.434 14.4692 537.76 31.9991 554.128 39.6219C556.324 40.6996 558.164 41.5689 559.531 42.2074C560.014 42.4332 560.427 42.6254 560.772 42.7859Z"
            fill="#F9CB11" stroke="white" stroke-width="4" />
        <path d="M196.415 144.185L210.651 152.359V360.185L132.605 314.599V176.793L196.415 144.185Z" fill="#F9CB11"
            stroke="white" stroke-width="4" />
        <path
            d="M213.623 219.821L212.71 220.283L134.805 175.653L197.38 143.692L197.38 143.692L474.423 2.22426C474.659 2.33392 474.94 2.46483 475.264 2.61599C476.38 3.13681 478.003 3.89796 480.033 4.85828L480.036 4.85937C496.021 12.3964 536.807 31.5554 554.128 39.6217C556.031 40.5555 557.666 41.3327 558.958 41.939C557.557 42.7717 555.61 43.8812 553.131 45.2559C548.753 47.6842 542.847 50.8701 535.686 54.6789C521.367 62.2954 502.057 72.387 479.968 83.8596C428.213 110.616 361.16 144.843 307.042 172.383C279.983 186.152 256.16 198.249 239.101 206.904C230.571 211.231 223.733 214.698 219.027 217.083C216.674 218.275 214.854 219.197 213.623 219.821Z"
            fill="#F9CB11" stroke="white" stroke-width="4" />
        <path
            d="M0 119.536C3.18423 121.356 6.09158 123.002 8.99892 124.666C30.9771 137.318 52.9379 149.97 74.916 162.622C77.1831 163.922 79.3982 165.361 81.7171 166.556C82.9631 167.198 83.2746 167.995 83.2746 169.312C83.24 186.834 83.2746 204.357 83.2746 221.879C83.2746 240.996 83.3093 260.112 83.3266 279.212C83.3266 279.888 83.3266 280.581 83.3266 281.517C88.449 280.494 93.3638 279.506 98.2959 278.519C133.721 271.395 169.145 264.255 204.587 257.131C212.357 255.572 220.11 253.96 227.898 252.504C229.109 252.279 230.684 252.487 231.757 253.076C243.144 259.523 254.462 266.109 265.814 272.643C283.899 283.059 302 293.458 320.102 303.875C330.191 309.681 340.28 315.504 350.37 321.31C350.646 321.466 350.871 321.709 351.408 322.16C306.517 331.051 261.972 339.855 217.012 348.763C261.609 409.199 306.033 469.426 350.456 529.636C350.352 529.74 350.266 529.861 350.162 529.965C345.247 527.106 340.332 524.246 335.4 521.386C318.994 511.871 302.571 502.356 286.166 492.841C267.735 482.147 249.253 471.506 230.926 460.604C228.711 459.287 227.205 456.635 225.579 454.434C202.926 423.757 180.307 393.063 157.723 362.351C156.72 361 155.785 360.774 154.262 361.086C133.582 365.229 112.902 369.319 92.2216 373.409C90.0584 373.842 87.8606 374.102 85.7493 374.709C84.0361 375.212 82.7555 374.778 81.3018 373.946C61.6945 362.525 42.0354 351.155 22.4108 339.768C15.6097 335.817 8.84317 331.831 2.00745 327.931C1.00373 327.359 0.744142 326.718 0.744142 325.643C0.744142 319.473 0.657614 313.32 0.640308 307.15C0.536474 270.858 0.467252 234.583 0.346112 198.291C0.224973 172.709 0.103834 147.093 0 121.477C0 120.957 0 120.42 0 119.553V119.536Z"
            fill="white" />
        <path
            d="M438.922 348.382C442.643 346.233 445.845 344.379 449.046 342.541C458.737 336.961 468.428 331.397 478.102 325.799C491.012 318.347 503.905 310.859 516.815 303.407C529.067 296.335 541.32 289.264 553.572 282.193C565.651 275.226 577.713 268.241 589.775 261.256C600.176 255.242 610.525 249.194 620.96 243.249C630.617 237.755 640.204 232.139 650.085 227.096C658.704 222.694 667.962 220.163 677.809 220.683C689.733 221.324 697.797 227.477 702.383 238.309C705.688 246.126 706.294 254.393 705.844 262.729C704.442 288.432 693.851 310.391 677.982 330.097C665.955 345.037 651.124 356.563 634.407 365.904C617.309 375.454 600.505 385.524 583.563 395.351C560.356 408.817 537.132 422.249 513.942 435.716C493.539 447.554 473.17 459.443 452.767 471.281C431.412 483.673 410.039 496.013 388.667 508.405C377.989 514.592 367.329 520.814 356.651 527.019C356.375 527.192 356.063 527.331 355.405 527.677C355.405 526.256 355.405 525.13 355.405 523.986C355.284 484.158 355.163 444.347 355.042 404.519C354.99 389.354 354.973 374.189 354.904 359.024C354.852 346.562 354.782 334.101 354.644 321.64C354.627 319.958 355.18 319.04 356.617 318.225C370.15 310.495 383.648 302.679 397.164 294.897C408.707 288.259 420.267 281.638 431.81 275C445.014 267.392 458.218 259.731 471.422 252.123C483.917 244.913 496.446 237.755 508.941 230.562C521.193 223.508 533.428 216.402 545.681 209.331C559.144 201.584 572.608 193.871 586.072 186.124C598.151 179.174 610.213 172.189 622.293 165.239C635.981 157.353 649.705 149.485 663.393 141.599C674.988 134.909 686.566 128.219 698.351 121.408C698.437 121.98 698.576 122.413 698.576 122.829C698.507 139.727 698.455 156.626 698.299 173.524C698.299 174.286 697.676 175.361 697.018 175.742C676.978 187.354 656.869 198.897 636.812 210.475C615.613 222.711 594.448 235.016 573.231 247.252C546.477 262.695 519.688 278.085 492.916 293.528C475.541 303.545 458.183 313.632 440.774 323.633C439.32 324.465 438.836 325.383 438.853 327.03C438.957 333.2 438.888 339.352 438.888 345.522C438.888 346.268 438.888 347.013 438.888 348.4L438.922 348.382ZM439.113 425.438C440.099 424.953 440.653 424.711 441.172 424.416C449.531 419.563 457.855 414.693 466.231 409.857C479.071 402.439 491.929 395.056 504.77 387.621C522.785 377.17 540.801 366.684 558.816 356.251C576.658 345.904 594.586 335.695 612.342 325.227C620.095 320.652 623.867 313.719 622.743 304.516C622.293 300.876 620.303 299.334 616.772 300.114C615.249 300.443 613.726 301.05 612.377 301.83C589.204 315.175 566.049 328.572 542.894 341.97C520.224 355.09 497.554 368.227 474.883 381.347C463.427 387.985 451.971 394.606 440.532 401.278C439.926 401.625 439.199 402.439 439.182 403.046C439.095 410.377 439.13 417.709 439.13 425.473L439.113 425.438Z"
            fill="white" />
    </g>
    <defs>
        <clipPath id="clip0_10_2">
            <rect width="706" height="530" fill="white" />
        </clipPath>
    </defs>
</svg>