<?xml version="1.0" encoding="UTF-8"?>
<svg id="_Слой_1" data-name="Слой 1" xmlns="http://www.w3.org/2000/svg" viewBox="0 0 407.96 305.8">
  <defs>
    <style>
      .cls-1,
      .cls-2 {
        stroke-width: 0px;
      }

      .cls-2 {
        fill: #f9cb11;
      }
    </style>
  </defs>
  <g>
    <path class="cls-2"
      d="M325.29,24v76l-47.41-27.65V1.76c9.24,4.35,32.82,15.41,42.82,20.06,2.53,1.24,4.24,2,4.59,2.18Z" />
    <polygon class="cls-2" points="122.88 87.24 122.88 209.83 75.47 182.18 75.47 101.3 113.53 81.88 122.88 87.24" />
    <path class="cls-2"
      d="M325.29,24c0,.06-.12.12-.29.29-2.47,1.82-21.59,11.88-47.12,25.12-59.82,30.88-155,79-155,79l-47.41-27.12,38.06-19.41L274.12,0s1.41.65,3.76,1.76c9.24,4.35,32.82,15.41,42.82,20.06,2.53,1.24,4.24,2,4.59,2.18Z" />
  </g>
  <path class="cls-1"
    d="M0,68.97c1.84,1.05,3.52,2,5.2,2.96,12.7,7.3,25.39,14.6,38.09,21.9,1.31.75,2.59,1.58,3.93,2.27.72.37.9.83.9,1.59-.02,10.11,0,20.22,0,30.33,0,11.03.02,22.06.03,33.08,0,.39,0,.79,0,1.33,2.96-.59,5.8-1.16,8.65-1.73,20.47-4.11,40.94-8.23,61.42-12.34,4.49-.9,8.97-1.83,13.47-2.67.7-.13,1.61-.01,2.23.33,6.58,3.72,13.12,7.52,19.68,11.29,10.45,6.01,20.91,12.01,31.37,18.02,5.83,3.35,11.66,6.71,17.49,10.06.16.09.29.23.6.49-25.94,5.13-51.68,10.21-77.66,15.35,25.77,34.87,51.44,69.62,77.11,104.36-.06.06-.11.13-.17.19-2.84-1.65-5.68-3.3-8.53-4.95-9.48-5.49-18.97-10.98-28.45-16.47-10.65-6.17-21.33-12.31-31.92-18.6-1.28-.76-2.15-2.29-3.09-3.56-13.09-17.7-26.16-35.41-39.21-53.13-.58-.78-1.12-.91-2-.73-11.95,2.39-23.9,4.75-35.85,7.11-1.25.25-2.52.4-3.74.75-.99.29-1.73.04-2.57-.44-11.33-6.59-22.69-13.15-34.03-19.72-3.93-2.28-7.84-4.58-11.79-6.83-.58-.33-.73-.7-.73-1.32,0-3.56-.05-7.11-.06-10.67-.06-20.94-.1-41.87-.17-62.81C.13,99.65.06,84.87,0,70.09c0-.3,0-.61,0-1.11Z" />
  <path class="cls-1"
    d="M253.63,201.01c2.15-1.24,4-2.31,5.85-3.37,5.6-3.22,11.2-6.43,16.79-9.66,7.46-4.3,14.91-8.62,22.37-12.92,7.08-4.08,14.16-8.16,21.24-12.24,6.98-4.02,13.95-8.05,20.92-12.08,6.01-3.47,11.99-6.96,18.02-10.39,5.58-3.17,11.12-6.41,16.83-9.32,4.98-2.54,10.33-4,16.02-3.7,6.89.37,11.55,3.92,14.2,10.17,1.91,4.51,2.26,9.28,2,14.09-.81,14.83-6.93,27.5-16.1,38.87-6.95,8.62-15.52,15.27-25.18,20.66-9.88,5.51-19.59,11.32-29.38,16.99-13.41,7.77-26.83,15.52-40.23,23.29-11.79,6.83-23.56,13.69-35.35,20.52-12.34,7.15-24.69,14.27-37.04,21.42-6.17,3.57-12.33,7.16-18.5,10.74-.16.1-.34.18-.72.38,0-.82,0-1.47,0-2.13-.07-22.98-.14-45.95-.21-68.93-.03-8.75-.04-17.5-.08-26.25-.03-7.19-.07-14.38-.15-21.57-.01-.97.31-1.5,1.14-1.97,7.82-4.46,15.62-8.97,23.43-13.46,6.67-3.83,13.35-7.65,20.02-11.48,7.63-4.39,15.26-8.81,22.89-13.2,7.22-4.16,14.46-8.29,21.68-12.44,7.08-4.07,14.15-8.17,21.23-12.25,7.78-4.47,15.56-8.92,23.34-13.39,6.98-4.01,13.95-8.04,20.93-12.05,7.91-4.55,15.84-9.09,23.75-13.64,6.7-3.86,13.39-7.72,20.2-11.65.05.33.13.58.13.82-.04,9.75-.07,19.5-.16,29.25,0,.44-.36,1.06-.74,1.28-11.58,6.7-23.2,13.36-34.79,20.04-12.25,7.06-24.48,14.16-36.74,21.22-15.46,8.91-30.94,17.79-46.41,26.7-10.04,5.78-20.07,11.6-30.13,17.37-.84.48-1.12,1.01-1.11,1.96.06,3.56.02,7.11.02,10.67,0,.43,0,.86,0,1.66ZM253.74,245.47c.57-.28.89-.42,1.19-.59,4.83-2.8,9.64-5.61,14.48-8.4,7.42-4.28,14.85-8.54,22.27-12.83,10.41-6.03,20.82-12.08,31.23-18.1,10.31-5.97,20.67-11.86,30.93-17.9,4.48-2.64,6.66-6.64,6.01-11.95-.26-2.1-1.41-2.99-3.45-2.54-.88.19-1.76.54-2.54.99-13.39,7.7-26.77,15.43-40.15,23.16-13.1,7.57-26.2,15.15-39.3,22.72-6.62,3.83-13.24,7.65-19.85,11.5-.35.2-.77.67-.78,1.02-.05,4.23-.03,8.46-.03,12.94Z" />
</svg>