<svg width="29" height="28" viewBox="0 0 29 28" fill="none" xmlns="http://www.w3.org/2000/svg">
<path d="M23.4745 0.806776C22.3912 -0.272257 20.5021 -0.267964 19.4274 0.813932L16.8743 3.37699L13.7174 6.53395H7.15446C6.86084 6.53375 6.5743 6.62404 6.33384 6.79254C6.09338 6.96104 5.9107 7.19955 5.81067 7.4756L0.0863593 23.2175C-0.103974 23.7398 0.0262539 24.3251 0.418369 24.7187L3.28053 27.5808C3.47294 27.7737 3.71656 27.9075 3.98258 27.9663C4.24861 28.0252 4.52592 28.0066 4.78173 27.9128L20.5236 22.1885C20.7996 22.0885 21.0382 21.9058 21.2067 21.6654C21.3752 21.4249 21.4655 21.1384 21.4652 20.8447V14.2818L24.6236 11.1234V11.122H24.6251L27.1896 8.55034C27.7305 8.0094 28.0282 7.28956 28.0267 6.52537C28.0267 5.75974 27.7276 5.03991 27.1853 4.50039L23.4745 0.806776V0.806776ZM19.0224 12.6776C18.8892 12.8102 18.7836 12.9679 18.7117 13.1416C18.6397 13.3152 18.6028 13.5014 18.6031 13.6893V19.843L5.36704 24.6557L12.0516 17.9711C12.0888 17.9726 12.126 17.9826 12.1632 17.9826C12.5878 17.9826 13.0028 17.8567 13.3558 17.6208C13.7088 17.3849 13.984 17.0497 14.1465 16.6574C14.3089 16.2652 14.3514 15.8336 14.2686 15.4172C14.1858 15.0008 13.9813 14.6183 13.6811 14.3181C13.3809 14.0179 12.9984 13.8134 12.582 13.7306C12.1656 13.6478 11.734 13.6903 11.3418 13.8527C10.9495 14.0152 10.6143 14.2904 10.3784 14.6434C10.1425 14.9964 10.0166 15.4114 10.0166 15.836C10.0166 15.8732 10.0266 15.9104 10.0281 15.9476L3.34349 22.6322L8.15621 9.39611H14.3099C14.6905 9.39611 15.054 9.24585 15.3216 8.9768L17.8875 6.41088L21.5883 10.1117L19.0224 12.6776ZM23.6104 8.08667L19.9097 4.3859L21.4538 2.83462L25.1646 6.52823L23.6104 8.08667Z" fill="#FACC15"/>
</svg>
