<svg width="28" height="28" viewBox="0 0 28 28" fill="none" xmlns="http://www.w3.org/2000/svg">
<path d="M24.8889 0H3.11111C1.39533 0 0 1.39533 0 3.11111V24.8889C0 26.6047 1.39533 28 3.11111 28H24.8889C26.6047 28 28 26.6047 28 24.8889V3.11111C28 1.39533 26.6047 0 24.8889 0ZM9.33333 12.4444V3.11111H18.6667V12.4444H9.33333ZM18.6667 15.5556V24.8889H9.33333V15.5556H18.6667ZM3.11111 3.11111H6.22222V6.22222H3.11111V3.11111ZM3.11111 9.33333H6.22222V12.4444H3.11111V9.33333ZM3.11111 15.5556H6.22222V18.6667H3.11111V15.5556ZM3.11111 21.7778H6.22222V24.8889H3.11111V21.7778ZM24.892 24.8889H21.7778V21.7778H24.892V24.8889V24.8889ZM24.8904 18.6667H21.7778V15.5556H24.8904V18.6667ZM24.8904 12.4444H21.7778V9.33333H24.8904V12.4444ZM21.7778 6.22222V3.11111H24.8889V6.22222H21.7778Z" fill="#FACC15"/>
</svg>
